<?xml version="1.0" encoding="utf-8"?>
<!-- Generator: Adobe Illustrator 24.3.0, SVG Export Plug-In . SVG Version: 6.00 Build 0)  -->
<svg version="1.1" id="Layer_1" xmlns="http://www.w3.org/2000/svg" xmlns:xlink="http://www.w3.org/1999/xlink" x="0px" y="0px"
	 viewBox="0 0 595.28 595.28" style="enable-background:new 0 0 595.28 595.28;" xml:space="preserve">
<style type="text/css">
	.st0{fill:#2E3343;}
	.st1{fill:#CCE9F5;}
	.st2{fill:#575756;}
</style>
<rect x="0" y="0" class="st0" width="595.28" height="595.28"/>
<g>
	<g>
		<path class="st1" d="M413.51,153.73v-38.59l22.1-21.97V0h-3.44v91.75l-22.1,21.97v40.01c-1.53,0.66-2.6,2.17-2.6,3.93
			s1.07,3.27,2.6,3.93v0.36h1.72c0,0,0,0,0,0s0,0,0,0h1.72v-0.36c1.53-0.66,2.59-2.17,2.59-3.93
			C416.1,155.9,415.03,154.39,413.51,153.73z"/>
		<path class="st1" d="M560.54,84.24V13.43L547.03,0h-4.87l14.93,14.84v69.39c-1.53,0.66-2.6,2.17-2.6,3.93s1.07,3.27,2.6,3.93v0.36
			h3.44V92.1c1.53-0.66,2.59-2.17,2.59-3.93S562.07,84.9,560.54,84.24z"/>
		<path class="st1" d="M531.09,176.42v-73.19L491.23,63.6V34.26h34.45V0h-3.44v30.83h-34.45v29.34l-11.12-11.05V19.79L496.57,0
			h-4.87l-18.48,18.37V45.7l-28.49-28.32V0h-3.44v18.8l31.94,31.74v55.11h-17.15l-18.49,18.37v59.5c-1.53,0.66-2.59,2.17-2.59,3.93
			c0,1.76,1.07,3.27,2.59,3.93v0.36h1.72c0,0,0,0,0,0l0,0h1.72v-0.36c1.53-0.66,2.6-2.17,2.6-3.93c0-1.76-1.07-3.27-2.6-3.93v-58.08
			l16.47-16.37h15.72v33.24c-1.53,0.66-2.6,2.17-2.6,3.93s1.07,3.27,2.6,3.93v0.36h1.72c0,0,0,0,0,0l0,0h1.72v-0.36
			c1.53-0.66,2.59-2.17,2.59-3.93s-1.07-3.27-2.59-3.93v-33.24h14.57V68.45l36.42,36.2v71.78c-1.53,0.66-2.59,2.17-2.59,3.93
			c0,1.76,1.07,3.27,2.59,3.93v0.36h1.72c0,0,0,0,0,0c0,0,0,0,0,0h1.72v-0.36c1.53-0.66,2.6-2.17,2.6-3.93
			C533.69,178.59,532.62,177.08,531.09,176.42z M487.78,105.65h-11.12V53.97l11.12,11.05V105.65z"/>
		<path class="st1" d="M579.13,125.2V77.52l16.14-16.05v-4.84L575.69,76.1v49.1c-1.53,0.66-2.59,2.17-2.59,3.93
			c0,1.76,1.07,3.27,2.59,3.93v0.36h1.72l0,0l0,0h1.72v-0.36c1.53-0.66,2.59-2.17,2.59-3.93
			C581.73,127.37,580.66,125.86,579.13,125.2z"/>
		<path class="st1" d="M398.11,113.34V50.26l28.5-28.33V0h-3.44v20.51l-28.5,28.33v64.5c-1.53,0.66-2.59,2.17-2.59,3.93
			c0,1.76,1.07,3.27,2.59,3.93v0.36h1.72c0,0,0,0,0,0c0,0,0,0,0,0h1.72v-0.36c1.53-0.66,2.59-2.17,2.59-3.93
			C400.71,115.51,399.64,114,398.11,113.34z"/>
		<path class="st1" d="M384.29,102.17V0h-3.44v100.75l-28.31,28.13v54.64c-1.53,0.66-2.6,2.17-2.6,3.93c0,1.76,1.07,3.27,2.6,3.93
			v0.36h1.72l0,0c0,0,0,0,0,0h1.72v-0.36c1.53-0.66,2.59-2.17,2.59-3.93s-1.07-3.27-2.59-3.93v-53.22L384.29,102.17z"/>
		<path class="st1" d="M341.99,98.95V73.68h18.34V0h-3.44v70.25h-14.89v-56.2L327.86,0h-4.87l15.56,15.47v54.79h-42.2V0h-3.44v70.25
			h-32.47v52.02l54.41,54.08v24.29c-1.53,0.66-2.59,2.17-2.59,3.93c0,1.76,1.07,3.27,2.59,3.93v0.36h3.44v-0.36
			c1.53-0.66,2.59-2.17,2.59-3.93c0-1.76-1.07-3.27-2.59-3.93v-25.71l-54.41-54.08V73.68h29.02v33.26
			c-1.53,0.66-2.59,2.17-2.59,3.93c0,1.76,1.07,3.27,2.59,3.93v0.36h1.72l0,0l0,0h1.72v-0.36c1.53-0.66,2.6-2.17,2.6-3.93
			c0-1.76-1.07-3.27-2.6-3.93V73.68h42.2v25.27c-1.53,0.66-2.59,2.17-2.59,3.93c0,1.76,1.07,3.27,2.59,3.93v0.36h1.72l0,0
			c0,0,0,0,0,0h1.72v-0.36c1.53-0.66,2.6-2.17,2.6-3.93C344.59,101.12,343.52,99.61,341.99,98.95z"/>
		<path class="st1" d="M72.63,0v24.32c-1.53,0.66-2.59,2.17-2.59,3.93c0,1.76,1.07,3.27,2.59,3.93v0.36h1.72c0,0,0,0,0,0
			c0,0,0,0,0,0h1.72v-0.36c1.53-0.66,2.6-2.17,2.6-3.93c0-1.76-1.07-3.27-2.6-3.93V0H72.63z"/>
		<path class="st1" d="M203.09,106.94V22.58L184.15,3.75V0h-3.44v5.16l18.95,18.83v82.94c-1.53,0.66-2.59,2.17-2.59,3.93
			c0,1.76,1.07,3.27,2.59,3.93v0.36h1.72l0,0c0,0,0,0,0,0h1.72v-0.36c1.53-0.66,2.59-2.17,2.59-3.93
			C205.69,109.11,204.62,107.6,203.09,106.94z"/>
		<path class="st1" d="M153.43,23.14L176.71,0h-4.87l-21.85,21.72v9.12h-16.36V0h-3.44v30.83h-20.67V12.4l11.8-11.73V0h-4.2
			l-7.6,7.56V0h-3.44v10.98L87.54,29.4v30.41H40.9V14.58L54.47,1.1v34.7c-1.53,0.66-2.59,2.17-2.59,3.93c0,1.76,1.07,3.27,2.59,3.93
			v0.36h1.72c0,0,0,0,0,0c0,0,0,0,0,0h1.72v-0.36c1.53-0.66,2.59-2.17,2.59-3.93c0-1.76-1.07-3.27-2.59-3.93V0H50.7L37.46,13.16
			v50.07h50.08v35.72c-1.53,0.66-2.59,2.17-2.59,3.93c0,1.76,1.07,3.27,2.59,3.93v0.36h1.72l0,0c0,0,0,0,0,0h1.72v-0.36
			c1.53-0.66,2.59-2.17,2.59-3.93c0-1.76-1.07-3.27-2.59-3.93V63.23h23.12v30.01c-1.53,0.66-2.59,2.17-2.59,3.93
			c0,1.76,1.07,3.27,2.59,3.93v0.36h1.72l0,0c0,0,0,0,0,0h1.72v-0.36c1.53-0.66,2.59-2.17,2.59-3.93c0-1.76-1.07-3.27-2.59-3.93
			V59.81H90.98V30.82l15.09-14.99v18.44h24.11v11.05c-1.53,0.66-2.59,2.17-2.59,3.93c0,1.76,1.07,3.27,2.59,3.93v0.36h1.72l0,0
			c0,0,0,0,0,0h1.72v-0.36c1.53-0.66,2.59-2.17,2.59-3.93c0-1.76-1.07-3.27-2.59-3.93V34.26h16.36v53.66l-15.79,15.69v50.12
			c-1.53,0.66-2.59,2.17-2.59,3.93c0,1.76,1.07,3.27,2.59,3.93v0.36h1.72c0,0,0,0,0,0h0h1.72v-0.36c1.53-0.66,2.59-2.17,2.59-3.93
			c0-1.76-1.07-3.27-2.59-3.93v-48.7l12.34-12.27v20.58c-1.53,0.66-2.59,2.17-2.59,3.93c0,1.76,1.07,3.27,2.59,3.93v0.36h1.72
			c0,0,0,0,0,0c0,0,0,0,0,0h1.72v-0.36c1.53-0.66,2.59-2.17,2.59-3.93c0-1.76-1.07-3.27-2.59-3.93V89.33l27.27-27.11V30.84h-27.27
			V23.14z M177.26,34.26v26.55l-23.83,23.68V34.26H177.26z"/>
		<path class="st1" d="M24.25,47.01V0h-3.44v45.59L3.25,63.04v30.2c-1.53,0.66-2.6,2.17-2.6,3.93c0,1.76,1.07,3.27,2.6,3.93v0.36
			h1.72l0,0c0,0,0,0,0,0H6.7v-0.36c1.53-0.66,2.59-2.17,2.59-3.93c0-1.76-1.07-3.27-2.59-3.93V64.46L24.25,47.01z"/>
		<path class="st1" d="M33.07,77.39V0h-3.44v77.39c-1.53,0.66-2.59,2.17-2.59,3.93c0,1.76,1.07,3.27,2.59,3.93v0.36h3.44v-0.36
			c1.53-0.66,2.59-2.17,2.59-3.93C35.66,79.56,34.59,78.06,33.07,77.39z"/>
		<path class="st1" d="M251.81,39.4V0h-3.44v37.98l-12.04,11.97V0h-3.44v53.38l-15.72,15.63v66.46c-1.53,0.66-2.6,2.17-2.6,3.93
			c0,1.76,1.07,3.27,2.6,3.93v0.36h1.72c0,0,0,0,0,0h0h1.72v-0.36c1.53-0.66,2.59-2.17,2.59-3.93c0-1.76-1.07-3.27-2.59-3.93V70.42
			l12.28-12.21v19.17c-1.53,0.66-2.59,2.17-2.59,3.93c0,1.76,1.07,3.27,2.59,3.93v0.36h3.44v-0.36c1.53-0.66,2.6-2.17,2.6-3.93
			c0-1.76-1.07-3.27-2.6-3.93V54.8L251.81,39.4z"/>
	</g>
	<g>
		<path class="st2" d="M12.29,105.97V75.26L0,63.05v4.23l9.28,9.22v29.48c-1.33,0.58-2.26,1.89-2.26,3.43
			c0,1.54,0.93,2.85,2.26,3.43v0.31h1.5c0,0,0,0,0,0h0h1.5v-0.31c1.33-0.58,2.26-1.89,2.26-3.43S13.62,106.55,12.29,105.97z"/>
		<path class="st2" d="M202.3,65.75V9.47L192.78,0h-4.25l10.77,10.7v55.05c-1.33,0.58-2.26,1.89-2.26,3.43
			c0,1.54,0.93,2.85,2.26,3.43v0.31h1.5c0,0,0,0,0,0c0,0,0,0,0,0h1.5v-0.31c1.33-0.58,2.26-1.89,2.26-3.43
			C204.56,67.64,203.63,66.33,202.3,65.75z"/>
		<path class="st2" d="M188.86,101V66.08l-19.29-19.17V0h-3.01v48.15l19.29,19.17V101c-1.33,0.58-2.26,1.89-2.26,3.43
			c0,1.54,0.93,2.85,2.26,3.43v0.31h1.5h0h0h1.5v-0.31c1.33-0.58,2.26-1.89,2.26-3.43C191.13,102.89,190.19,101.57,188.86,101z"/>
		<path class="st2" d="M239.06,127V79.32l-24.7-24.55V0h-3.01v56l24.7,24.55V127c-1.33,0.58-2.26,1.89-2.26,3.43
			c0,1.54,0.93,2.85,2.26,3.43v0.31h1.5c0,0,0,0,0,0l0,0h1.5v-0.31c1.33-0.58,2.26-1.89,2.26-3.43
			C241.33,128.89,240.39,127.58,239.06,127z"/>
		<path class="st2" d="M291.1,0h-3.01v28.15h-36.83V0h-3.01v28.15h-13V0h-3.01v31.14h16v22.05c-1.33,0.58-2.26,1.89-2.26,3.43
			c0,1.54,0.93,2.85,2.26,3.43v0.31h1.5l0,0c0,0,0,0,0,0h1.5v-0.31c1.33-0.58,2.26-1.89,2.26-3.43c0-1.54-0.93-2.85-2.26-3.43V31.14
			h36.83v29.02c-1.33,0.58-2.26,1.89-2.26,3.43c0,1.54,0.93,2.85,2.26,3.43v0.31h1.5c0,0,0,0,0,0h0h1.5v-0.31
			c1.33-0.58,2.26-1.89,2.26-3.43c0-1.54-0.93-2.85-2.26-3.43V31.14h25.33v41.17l-47.49,47.2v22.43c-1.33,0.58-2.26,1.89-2.26,3.43
			c0,1.54,0.93,2.85,2.26,3.43v0.31h3.01v-0.31c1.33-0.58,2.26-1.89,2.26-3.43c0-1.54-0.93-2.85-2.26-3.43v-21.2l47.49-47.2V28.15
			H291.1V0z"/>
		<path class="st2" d="M44.33,76.1V33.25L24.89,13.93V0h-3.01v15.17l19.44,19.32V76.1c-1.33,0.58-2.26,1.89-2.26,3.43
			c0,1.54,0.93,2.85,2.26,3.43v0.31h1.5l0,0c0,0,0,0,0,0h1.5v-0.31c1.33-0.58,2.26-1.89,2.26-3.43
			C46.59,77.99,45.66,76.67,44.33,76.1z"/>
		<path class="st2" d="M164.85,127V75.07l-16.13-16.03h-14.96V10.95L144.76,0h-4.25l-6.76,6.72V0h-3.01v9.71l-9.71,9.65V0h-3.01
			v22.34L83.24,56.92v63.87c-1.33,0.58-2.26,1.89-2.26,3.43c0,1.54,0.93,2.85,2.26,3.43v0.31h1.5c0,0,0,0,0,0c0,0,0,0,0,0h1.5v-0.31
			c1.33-0.58,2.26-1.89,2.26-3.43c0-1.54-0.93-2.85-2.26-3.43V58.16l31.78-31.59v35.46h12.71v29.01c-1.33,0.58-2.26,1.89-2.26,3.43
			c0,1.54,0.93,2.85,2.26,3.43v0.31h1.5l0,0l0,0h1.5V97.9c1.33-0.58,2.26-1.89,2.26-3.43c0-1.54-0.93-2.85-2.26-3.43V62.03h13.72
			l14.37,14.28V127c-1.33,0.58-2.26,1.89-2.26,3.43c0,1.54,0.93,2.85,2.26,3.43v0.31h1.5c0,0,0,0,0,0l0,0h1.5v-0.31
			c1.33-0.58,2.26-1.89,2.26-3.43C167.11,128.89,166.18,127.58,164.85,127z M130.74,59.04h-9.71V23.58l9.71-9.65V59.04z"/>
		<path class="st2" d="M60.55,40.35V0h-3.01v40.35c-1.33,0.58-2.26,1.89-2.26,3.43s0.93,2.85,2.26,3.43v0.31h3.01v-0.31
			c1.33-0.58,2.26-1.89,2.26-3.43C62.82,42.25,61.88,40.93,60.55,40.35z"/>
		<path class="st2" d="M493.91,1.51c0,1.54,0.93,2.85,2.26,3.43v0.31h1.5l0,0c0,0,0,0,0,0h1.5V4.94c1.33-0.58,2.26-1.89,2.26-3.43
			c0-0.54-0.12-1.05-0.33-1.51h-6.88C494.03,0.46,493.91,0.97,493.91,1.51z"/>
		<path class="st2" d="M514.02,22.02V0h-3.01v19.03h-40.7V0h-3.01v19.03h-23.19v29.18c-1.33,0.58-2.26,1.89-2.26,3.43
			c0,1.54,0.93,2.85,2.26,3.43v0.31h1.5l0,0l0,0h1.5v-0.31c1.33-0.58,2.26-1.89,2.26-3.43c0-1.54-0.93-2.85-2.26-3.43V22.02h20.18
			v31.17c-1.33,0.58-2.26,1.89-2.26,3.43c0,1.54,0.93,2.85,2.26,3.43v0.31h1.5c0,0,0,0,0,0s0,0,0,0h1.5v-0.31
			c1.33-0.58,2.26-1.89,2.26-3.43c0-1.54-0.93-2.85-2.26-3.43V22.02H514.02z"/>
		<path class="st2" d="M429.6,101V57.26l-13.78-13.69V0h-3.01v40.57l-20.79-20.67V0h-3.01v21.14l23.8,23.65v20.95
			c-1.33,0.58-2.26,1.89-2.26,3.43c0,1.54,0.93,2.85,2.26,3.43v0.31h1.5c0,0,0,0,0,0c0,0,0,0,0,0h1.5v-0.31
			c1.33-0.58,2.26-1.89,2.26-3.43c0-1.54-0.93-2.85-2.26-3.43V47.79l10.77,10.71V101c-1.33,0.58-2.26,1.89-2.26,3.43
			c0,1.54,0.93,2.85,2.26,3.43v0.31h1.5c0,0,0,0,0,0h0h1.5v-0.31c1.33-0.58,2.26-1.89,2.26-3.43
			C431.87,102.89,430.93,101.57,429.6,101z"/>
		<path class="st2" d="M372.49,60.16V0h-3.01v60.16c-1.33,0.58-2.26,1.89-2.26,3.43c0,1.54,0.93,2.85,2.26,3.43v0.31h1.5
			c0,0,0,0,0,0h0h1.5v-0.31c1.33-0.58,2.26-1.89,2.26-3.43C374.75,62.06,373.82,60.74,372.49,60.16z"/>
		<path class="st2" d="M433.11,6.38V0h-3.01v6.38c-1.33,0.58-2.26,1.89-2.26,3.43s0.93,2.85,2.26,3.43v0.31h1.5h0h0h1.5v-0.31
			c1.33-0.58,2.26-1.89,2.26-3.43S434.44,6.96,433.11,6.38z"/>
		<path class="st2" d="M571.39,34.38V0h-3.01v34.38c-1.33,0.58-2.26,1.89-2.26,3.43c0,1.54,0.93,2.85,2.26,3.43v0.31h3.01v-0.31
			c1.33-0.58,2.26-1.89,2.26-3.43C573.65,36.27,572.72,34.96,571.39,34.38z"/>
		<path class="st2" d="M581.64,26.63V13.74l13.64-13.55V0h-4.07l-12.57,12.5v14.13c-1.33,0.58-2.26,1.89-2.26,3.43
			c0,1.54,0.93,2.85,2.26,3.43v0.31h3.01v-0.31c1.33-0.58,2.26-1.89,2.26-3.43C583.91,28.52,582.97,27.21,581.64,26.63z"/>
		<path class="st2" d="M520.86,34.38V0h-3.01v34.38c-1.33,0.58-2.26,1.89-2.26,3.43c0,1.54,0.93,2.85,2.26,3.43v0.31h3.01v-0.31
			c1.33-0.58,2.26-1.89,2.26-3.43C523.13,36.27,522.2,34.96,520.86,34.38z"/>
		<path class="st2" d="M543.88,48.21V21.86L528.55,6.63V0h-3.01v7.86l15.32,15.23v25.12c-1.33,0.58-2.26,1.89-2.26,3.43
			c0,1.54,0.93,2.85,2.26,3.43v0.31h1.5l0,0c0,0,0,0,0,0h1.5v-0.31c1.33-0.58,2.26-1.89,2.26-3.43
			C546.14,50.1,545.21,48.79,543.88,48.21z"/>
		<path class="st2" d="M357.21,85.06v-58l-13.72-13.64V0h-3.01v10.43L329.99,0h-3.02v1.22l13.52,13.43v19.72
			c-1.33,0.58-2.26,1.89-2.26,3.43c0,1.54,0.93,2.85,2.26,3.43v0.31h3.01v-0.31c1.33-0.58,2.26-1.89,2.26-3.43
			c0-1.54-0.93-2.85-2.26-3.43V17.65L354.2,28.3v56.76c-1.33,0.58-2.26,1.89-2.26,3.43c0,1.54,0.93,2.85,2.26,3.43v0.31h1.5
			c0,0,0,0,0,0l0,0h1.5v-0.31c1.33-0.58,2.26-1.89,2.26-3.43C359.47,86.95,358.54,85.64,357.21,85.06z"/>
	</g>
	<g>
		<polygon class="st1" points="12.49,494.96 0,506.07 0,510.58 15.88,496.46 15.88,447.47 17.91,447.47 17.91,440.06 15.88,440.06 
			15.88,440.06 12.49,440.06 12.49,440.06 10.46,440.06 10.46,447.47 12.49,447.47 		"/>
		<polygon class="st1" points="0,574.33 0,578.84 18.48,595.28 23.56,595.28 		"/>
		<path class="st1" d="M32.92,558.07l38.3,34.07v3.14h3.39V540.9h37.84v-29.14l12.62,11.22v28.73l-26.81,23.84v19.73h3.39v-18.23
			l26.81-23.84v-27.22l31.7,28.19v24.23h-32.16v16.87h3.39v-13.51h28.78v13.51h3.39v-13.51h6.62v13.51h3.39v-13.51h6.5v13.51h3.39
			v-13.51h43.11v13.51h3.39v-13.51h26.32v-79.62h16.76v55.3l22.04,19.6v18.23h3.39v-19.73l-22.04-19.6v-53.8h46.76v75.95
			l-19.31,17.17h5.08l17.62-15.67v-77.46h35.67v-51.19l-59.78-53.16v-24.5h2.03v-7.41H297v7.41h2.03v26l59.78,53.16v46.32h-32.28
			v-33.37h2.03v-7.41h-2.03l0,0h-3.39l0,0h-2.03v7.41h2.03v33.37h-46.76v-25.51h2.03v-7.41h-2.03l0,0h-3.39l0,0h-2.03v7.41h2.03
			v25.51h-20.15v79.62h-22.93V472.23l31.1-27.65v-54.44h2.03v-7.41h-7.45v7.41h2.03v52.94l-31.1,27.65v107.68h-43.11v-27.3
			l31.31-27.85v-64.13h2.03v-7.41h-7.45v7.41h2.03v62.63l-31.31,27.85v28.81h-6.5v-97.33l24.28-21.6v-40.06h2.03v-7.41h-2.03v0
			h-3.39v0h-2.03v7.41h2.03v38.55l-24.28,21.6v98.84h-6.62v-25.73l-35.08-31.2v-54.12h18.9l20.25-18v-59.22h2.03v-7.41h-7.45v7.41
			h2.03v57.72l-18.15,16.14h-17.61v-33.35h2.03v-7.41h-2.03l0,0h-3.39l0,0h-2.03v7.41h2.03v33.35h-16v40.24l-40.41-35.94v-71.18
			h2.03v-7.41h-7.45v7.41h2.03v72.68l43.8,38.95v28.79H71.22v50.08l-34.92-31.05v-68.84h2.03v-7.41h-2.03l0,0h-3.39l0,0h-2.03v7.41
			h2.03V558.07z M112.45,467.36h12.62v51.11l-12.62-11.22V467.36z"/>
		<polygon class="st1" points="357.59,595.28 375.47,579.38 375.47,533.93 389.09,521.81 389.09,589.01 382.05,595.28 
			387.13,595.28 392.48,590.52 392.48,518.8 409.75,503.43 409.75,437.37 411.79,437.37 411.79,429.97 409.75,429.97 409.75,429.97 
			406.37,429.97 406.37,429.97 404.34,429.97 404.34,437.37 406.37,437.37 406.37,501.93 392.48,514.28 392.48,494.46 
			394.51,494.46 394.51,487.05 387.06,487.05 387.06,494.46 389.09,494.46 389.09,517.29 372.08,532.42 372.08,577.88 
			352.52,595.28 		"/>
		<path class="st1" d="M595.28,509.06h-43.13v-35.79h2.03v-7.41h-2.03l0,0h-3.39l0,0h-2.03v7.41h2.03v35.79h-25.8v-30.18h2.03v-7.41
			h-2.03v0h-3.39v0h-2.03v7.41h2.03v33.54h29.19v28.44l-16.97,15.09v-18.42H505.3V526h2.03v-7.41h-2.03v0h-3.39v0h-2.03V526h2.03
			v11.54h-18.37v-52.69l17.34-15.43v-50h2.03v-7.41h-2.03v0h-3.39v0h-2.03v7.41h2.03v48.5l-13.96,12.41v-21.21h2.03v-7.41h-7.45
			v7.41h2.03v24.22l-29.96,26.64v30.91h29.96v7.51l-30.36,27v-9.33l-20.81-18.51v-82.15h2.03v-7.41h-2.03l0,0h-3.39l0,0h-2.03v7.41
			h2.03v83.66l20.81,18.51v10.84l-18.95,16.86h5.08l13.88-12.34v12.34h3.39v-15.35l33.74-30.01v-9.02h18.37v42.2h-38.19v12.18h3.39
			v-8.81h38.19V540.9h23.1v18.07l-12.96,11.53v24.78h3.39V572l9.58-8.52v31.79h3.39v-34.8l20.36-18.11v-29.95h43.13V509.06z
			 M480.16,537.53h-26.57v-26.04l26.57-23.63V537.53z"/>
		<polygon class="st1" points="595.28,564.38 588.48,570.43 588.48,535.35 590.51,535.35 590.51,527.94 583.06,527.94 
			583.06,535.35 585.09,535.35 585.09,573.44 577.6,580.1 577.6,595.28 580.99,595.28 580.99,581.61 585.09,577.96 585.09,595.28 
			588.48,595.28 588.48,574.95 595.28,568.9 		"/>
		<polygon class="st1" points="568.52,595.28 568.52,546.62 570.55,546.62 570.55,539.22 563.1,539.22 563.1,546.62 565.14,546.62 
			565.14,595.28 		"/>
	</g>
	<g>
		<polygon class="st2" points="328.91,595.28 331.92,595.28 331.92,530.18 373.42,530.18 373.42,577.94 353.93,595.28 
			358.44,595.28 376.43,579.28 376.43,530.18 391.31,530.18 391.31,595.28 394.32,595.28 394.32,527.2 376.43,527.2 376.43,504.54 
			378.23,504.54 378.23,497.97 376.43,497.97 376.43,497.97 373.42,497.97 373.42,497.97 371.62,497.97 371.62,504.54 
			373.42,504.54 373.42,527.2 331.92,527.2 331.92,497.57 333.72,497.57 333.72,491 331.92,491 331.92,491 328.91,491 328.91,491 
			327.1,491 327.1,497.57 328.91,497.57 328.91,527.2 300.25,527.2 300.25,486.08 353.32,438.88 353.32,415.8 355.13,415.8 
			355.13,409.22 348.51,409.22 348.51,415.8 350.31,415.8 350.31,437.54 297.25,484.74 297.25,530.18 328.91,530.18 		"/>
		<polygon class="st2" points="443.17,492.3 464.73,511.47 464.73,595.28 467.73,595.28 467.73,510.14 446.18,490.96 446.18,456.74 
			447.98,456.74 447.98,450.16 446.18,450.16 446.18,450.16 443.17,450.16 443.17,450.16 441.37,450.16 441.37,456.74 
			443.17,456.74 		"/>
		<polygon class="st2" points="387.07,479.07 414.67,503.62 414.67,595.28 417.68,595.28 417.68,502.28 390.07,477.73 
			390.07,430.73 391.88,430.73 391.88,424.16 385.26,424.16 385.26,430.73 387.07,430.73 		"/>
		<path class="st2" d="M470.01,483.31l17.97,15.98h16.78v48.05l-31.15,27.7v20.24h3.01v-18.91l28.14-25.03v24.17l22.23,19.77h4.51
			l-23.73-21.1v-25.5l11.2-9.96v25.87h33.59v30.69h3.01V561.6h-33.59v-25.56l38.88-34.58v-64.52h1.8v-6.57h-6.61v6.57h1.8v63.19
			l-35.87,31.91V496.3h-14.21V466.7h1.8v-6.57h-1.8l0,0h-3.01l0,0h-1.8v6.57h1.8v29.61h-15.63l-16.12-14.33v-51.24h1.8v-6.57h-6.61
			v6.57h1.8V483.31z M507.77,499.29h11.2v35.41l-11.2,9.96V499.29z"/>
		<polygon class="st2" points="586.57,578.49 567.69,595.28 572.2,595.28 589.57,579.82 589.57,517.38 591.38,517.38 591.38,510.8 
			589.57,510.8 589.57,510.8 586.57,510.8 586.57,510.8 584.76,510.8 584.76,517.38 586.57,517.38 		"/>
		<polygon class="st2" points="428.15,548.92 455.95,573.64 455.95,595.28 458.96,595.28 458.96,572.3 431.16,547.58 431.16,491.98 
			432.96,491.98 432.96,485.41 426.35,485.41 426.35,491.98 428.15,491.98 		"/>
		<polygon class="st2" points="255.03,531.32 270.36,544.96 270.36,595.28 273.37,595.28 273.37,547.64 285.47,558.39 
			285.47,595.28 288.48,595.28 288.48,557.06 273.37,543.63 273.37,523.35 275.18,523.35 275.18,516.78 268.56,516.78 
			268.56,523.35 270.36,523.35 270.36,540.95 258.03,529.99 258.03,472.67 259.84,472.67 259.84,466.1 258.03,466.1 258.03,466.1 
			255.03,466.1 255.03,466.1 253.22,466.1 253.22,472.67 255.03,472.67 		"/>
		<path class="st2" d="M96.36,595.28h5.03l-2.03-1.8v-33.82h1.8v-6.57h-6.61v6.57h1.8v31.15l-13.58-12.08V539.3h45.83v26.58
			l18.07,16.07v13.32h3.01v-10.64l8.5,7.56v3.08h3.01v-4.42l-11.51-10.24v-16.04h20.51v30.69h3.01v-30.69h16.31v8l25.51,22.69h7.45
			v-7l18.48-16.43v-74.27h1.8V491h-1.8v0h-3.01v0h-1.8v6.57h1.8v72.93l-18.48,16.43v8.28l-26.95-23.97v-6.67h26.6v-27.44
			l-26.6-23.65v-21.5h1.8v-6.57h-6.62v6.57h1.8v18.83l-12.39-11.02v-43.05h1.8v-6.57h-1.8v0h-3.01v0h-1.8v6.57h1.8v44.39l15.4,13.69
			v46.77h-16.31v-10.24h1.8v-6.57h-1.8v0h-3.01v0h-1.8v6.57h1.8v10.24h-23.52v16.36l-15.07-13.4V539.3h25.91v-29.78h1.8v-6.57h-1.8
			l0,0h-3.01l0,0h-1.8v6.57h1.8v26.79h-22.91v-31.77h1.81v-6.57h-1.81l0,0h-3.01l0,0h-1.8v6.57h1.8v31.77H79.77v43.74l16.59,14.75
			V595.28z M192.53,517.49l23.59,20.98v23.12h-23.59V517.49z"/>
		<polygon class="st2" points="117.08,595.28 117.08,569.66 118.89,569.66 118.89,563.09 112.27,563.09 112.27,569.66 
			114.08,569.66 114.08,595.28 		"/>
		<polygon class="st2" points="15.67,562.32 29.92,574.99 29.92,595.28 32.93,595.28 32.93,573.66 18.67,560.98 18.67,523.35 
			20.48,523.35 20.48,516.78 13.86,516.78 13.86,523.35 15.67,523.35 		"/>
		<polygon class="st2" points="14.82,595.28 17.83,595.28 17.83,594.18 19.64,594.18 19.64,587.61 17.83,587.61 17.83,587.61 
			14.82,587.61 14.82,587.61 13.02,587.61 13.02,594.18 14.82,594.18 		"/>
		<polygon class="st2" points="72.13,595.28 75.14,595.28 75.14,523.35 76.94,523.35 76.94,516.78 70.33,516.78 70.33,523.35 
			72.13,523.35 		"/>
		<polygon class="st2" points="46.41,536.53 63.54,551.76 63.54,595.28 66.54,595.28 66.54,550.42 49.42,535.19 49.42,509.52 
			51.22,509.52 51.22,502.95 49.42,502.95 49.42,502.95 46.41,502.95 46.41,502.95 44.61,502.95 44.61,509.52 46.41,509.52 		"/>
		<polygon class="st2" points="2.59,569.66 4.39,569.66 4.39,595.28 7.4,595.28 7.4,569.66 9.2,569.66 9.2,563.09 2.59,563.09 		"/>
		<polygon class="st2" points="7.21,524.53 7.21,524.53 4.21,524.53 4.21,524.53 2.4,524.53 2.4,531.1 4.21,531.1 4.21,544.55 
			0,548.29 0,552.29 7.21,545.88 7.21,531.1 9.02,531.1 9.02,524.53 		"/>
	</g>
</g>
</svg>
